<svg xmlns="http://www.w3.org/2000/svg" viewBox="0 0 1214.09 829.93"><defs><style>.cls-1{fill:#1e4ed9;}.cls-2{fill:#fb7d05;}.cls-3{fill:#fefefe;}</style></defs><g id="Layer_2" data-name="Layer 2"><g id="Layer_1-2" data-name="Layer 1"><path class="cls-1" d="M766.49,223.91c91.78,1.62,183.94-.09,275.85.62,81.52-1.53,156.43,61,168.93,141.63,15.82,82.28-36.49,167.76-117,191.34a174,174,0,0,1-53.56,7.89c-85.43.92-171.68-1.86-256.72,1-32.79-4.41-25.07,2.94-38.07,26.91-20.82,40.46-48.09,77.5-81.52,108.48-116.32,111.7-298.83,134.79-439.65,56.78C55.63,663.35-18.47,457.09,49.21,275.65,124.67,68.82,366.45-36,566.48,60.56c55.46,27,104.88,66.51,141.9,115.93a404.33,404.33,0,0,1,29.17,44.56c1.17,2,2.43,3.52,5,3.43C750.51,224.16,758.52,225,766.49,223.91ZM580.12,396.56c3.35-96.69-86.07-179.88-181.77-173.45-70.87,2.52-137.86,55.3-156.11,123.89-16.22,49.65-4.35,106.16,23.47,149.4,19.8,33.81,49.65,61.84,63.43,99C333.7,604.11,346,596,352,593c8.06-4.37,13.14-11.58,17.45-19.37,4.11-10.69,14.62-4.17,23.32-5,14,.51,28,.62,41.93-.87C443.6,565.4,568.76,557.8,580.12,396.56Zm55.07-12c-16.75-1.84-25.72,20.09-8.2,25.3,146.9,2,294.31,1.53,441.25.18,15.76-2.45,12.87-27.39-4.65-25.38C991.94,384.62,706.34,384.61,635.19,384.54ZM406.47,651.1V651c21.31,0,42.62.1,63.92,0,7.59-.05,15.3-6.28,17-13.07,4.68-15.31-7.68-26.11-21.56-26.13-40.54.36-81.06,0-121.59.7-25.67,1.12-25.54,37.84.31,38.63C365.19,651.05,385.83,651.1,406.47,651.1Zm.75,13.63v0H344.76c-11.46-.87-20.6,13.23-16.88,22.75,3.25,9.49,8.67,13.42,18.62,13.42,41.13-.11,82.29.11,123.42-.16,11.28-.62,17.78-11.62,16.26-20.5-1.67-9.81-9-15.51-19-15.53C447.2,664.69,427.21,664.73,407.22,664.73Zm0,48.58c-16.46,0-32.93-.11-49.39.11-15.69,2.65,6.17,21.22,11.42,25.26,17.73,14.26,43,17.65,63.19,6.57C443,739.8,461.12,729,460.24,715.7c-1.19-2.9-4.5-2.34-7.08-2.35C437.86,713.29,422.55,713.32,407.25,713.31ZM1016,466.2c0,9.5.2,19-.09,28.49-.14,4.48,1.06,6.28,5.84,6.13,14.09-.91,28.46,1.28,42.39-1.24,15.37-2.23,21.18-23.1,8.4-32.57-2.68-2-2.89-3.66-.94-6.57,10.67-14.74-2.66-28.85-18-28.63C1009.6,434,1016.28,419.45,1016,466.2Zm-226.83-.35c2.27,37.23-10,35.5,22.74,34.87,13.56-.42,34.67,3,39.78-13.51,2-8,.77-15.63-6.84-20.79-3.17-2.15-1.47-4,.11-6.12,10.34-13.07-2.3-28.26-16.86-28.35C782.68,434.26,789.46,418.51,789.19,465.85ZM144,383.69v-.06c-13.49,0-27-.19-40.48.06-9,.17-15.3,9.63-12.33,17.86,2.49,6.89,9.09,11.24,17.11,11.24,22.82,0,45.66.21,68.48-.16,6.82-.11,13.61-1.13,17.64-8.67,5.29-8.31-1.19-19.42-10.43-20.18C170.67,383.5,157.33,383.69,144,383.69ZM184,176c-1.48,7.5,5.95,12.84,10.68,17.77,15.59,15,30.77,30.36,45.8,45.95,13.45,14.6,36.67-6,20.34-20.17-3.66-3.46-7.36-6.91-10.88-10.47-13.06-14-27.09-27-40-41.18C201.21,158.93,183.76,160.94,184,176ZM740.37,431.7c-9.35,0-9.29,0-12.57,7.67-2.62,6.1-5.42,12.12-8.13,18.19q-8.61,19.37-17.24,38.72c-.92,2.06-1.65,3.69,1.52,4.38,20.11,5.12,12.15-14.69,24.93-14.9a141.76,141.76,0,0,0,18-.06c16-2,6.19,18.36,23.56,15,5.47-.07,8.52.18,5.21-6.08-8.28-18.51-16.81-36.93-24.69-55.62C748.55,433.37,745.8,430.31,740.37,431.7Zm225.07,54.09c6.68.9,15.78-3.08,18.54,5.49,4.52,11.27,1.57,9.13,14.16,9.44,3.82.14,7.24.1,4.73-4.93C994.8,477.93,987,459.94,979.13,442c-4.63-10.57-4.6-10.49-16.43-10.34-3.31,0-5.19,1.32-6.49,4.27-7.93,17.94-16,35.82-23.92,53.75-5,11.36-5,11.31,7.73,11.12,3,0,5.49-.64,6-3.9C947.45,485,955.89,484.82,965.44,485.79ZM842,324.83c0,9.66.2,19.32-.09,29-.14,4.48,1.46,5.74,5.75,5.67,13.15-.22,26.31-.08,39.46-.1,8.17,0,8.06,0,7.74-8.44-.12-3.16-1.26-4.49-4.48-4.43-7.49.12-15,0-22.48,0-10.48,0-10.31,0-10.27-10.22,0-4.24,1.69-5.52,5.68-5.4,7,.22,14,.11,21,.08,3.2,0,6-.34,5.95-4.76-.13-6.8-.55-7.58-6-7.66-7.16-.1-14.32-.15-21.48,0-5.4.56-5.28-3.78-5-7.9.06-6.2.41-6.58,6.44-6.59,8.16,0,16.32-.22,24.47,0,4.88.15,5.87-2.17,5.83-6.42s-.33-7.11-5.73-7c-13.81.21-27.64.15-41.46,0-3.83,0-5.38,1.24-5.31,5.2C842.16,305.52,842,315.18,842,324.83ZM420.18,127c-.61-13,.74-26-.94-38.93-3-17.56-24.61-14.81-23.85,2.51.14,24.65-.42,49.34.1,74,.83,15.3,22.25,16,23.78.37C421,152.33,419.52,139.66,420.18,127ZM792,361.3c6.32.42,13.15-1.56,19.51-5.08,8.22-4.54,8.28-6.15,1.69-12.76-2.63-2.64-4.44-3.62-7.77-.54-20.42,17.76-47-11.91-30.8-32.21,7.5-9.65,21.73-10.9,31.49-2.48,4,3.95,6.19-.8,9.09-3.12,3.77-3,3.19-5.69-.43-8.4-11.86-8.87-25-9.86-38.32-5C740.49,304.58,750.18,364.18,792,361.3ZM565.86,538.64c-5.4-.08-11.51,6-12,11.39-.52,6.41,4.3,9.14,7.85,13,15.64,17.18,32.54,33.07,49.44,49,5.26,5,10.7,4.52,15.74-.75,9.74-10.36-4.29-19.42-10.91-26.6-13.59-14.12-27.64-27.77-41.54-41.58C572.16,540.8,569.55,538.55,565.86,538.64ZM261.26,550c0-4.76-3.33-9.14-8.67-11-10.73-4-16,10.47-23.54,15.74-13.13,13.16-26.39,26.21-39.43,39.47-11.88,10.13,5.29,26.72,15.91,16.29,10.54-8.38,19.09-18.9,28.71-28.3C243.08,571.77,258.45,564.13,261.26,550ZM644.7,465.92q0,12,0,24c0,10.9-1.65,10.67,11.61,10.44,6.93-.07,2.81-13.81,3.8-18.57-2-10.14,21.33-4.59,27.95-5.9,4.37.05,4.16-2.86,4.08-5.79s.91-6.39-3.94-6.36c-5,0-10,0-15,0-14.42,0-13,1.61-13.06-13.72,0-3.66,1.4-5.46,5.38-5.36,8.17.2,16.34-.15,24.5.14,5,.18,6.19-2,6.15-6.61,0-4.33-1-6.38-5.89-6.29-13.32.24-26.66.17-40,0-4.08-.05-5.71,1.46-5.64,5.55C644.79,446.92,644.69,456.42,644.7,465.92ZM557.89,224.41c-.17,9.61,11.6,17.66,18.51,9.31,16.45-16,32.89-31.95,48.68-48.58,12.57-12.08-4.41-27.46-15.59-16.26-16.1,15.83-32,31.91-47.82,48C559.66,218.94,557.3,221.2,557.89,224.41ZM871.27,466.16h0c0,9.81.14,19.63-.07,29.43-.09,4,1.42,5.21,5.25,5.17,13.3-.15,26.61-.19,39.91,0,4.24.06,6-1.11,5.79-5.63-.31-7.52-.37-8-6.13-8-7.32-.05-14.65-.23-21.95.08-4.7.2-6.45-1.26-6.33-6.17.29-12.8.16-25.6.07-38.41-.08-12.14,1.85-10.61-10.82-11-4.78-.15-6,1.71-5.83,6.13C871.45,447.2,871.27,456.68,871.27,466.16Zm69.38-175.42c-8.49,0-17,.12-25.46-.05-4.77-.09-5.33,2.66-5.33,6.44-1.46,9.69,9.79,6.36,15.91,6.92,6.15,0,6.52.41,6.5,6.36-.07,13-.4,25.94,0,38.9.31,11.08-2.25,9.92,10.1,10.13,4.07.06,5.54-1.2,5.48-5.4-.22-14.14-.09-28.28-.1-42.42,0-7.55,0-7.55,7.78-7.57,3.16,0,6.33-.2,9.47,0,5.13.39,5.16-2.88,5-6.45-.14-3.35,1-7.22-4.85-7C957,291,948.8,290.73,940.65,290.74ZM644.69,325h0c0,9.64.16,19.29-.07,28.93-.1,4.12,1.29,5.59,5.43,5.54,13.13-.17,26.27-.23,39.4,0,4.77.1,5.46-2.05,5.36-6.05s-.1-7.21-5.67-7c-7.63.34-15.3-.12-22.94.13-4.38.14-5.83-1.5-5.77-5.81.19-13.3.13-26.6,0-39.91-.06-10.81,1.76-10.06-10.7-10.18-3.87,0-5.25,1.45-5.17,5.34C644.83,305.67,644.69,315.31,644.69,325Zm85.66.38c0-9.84-.09-19.67,0-29.5.49-5.53-3.94-5-8-4.86-7.1,0-7.1,0-7.1,7.34,0,17,0,34,0,51,0,10.38-1.65,9.64,10,9.82,4,.07,5.16-1.47,5.07-5.3C730.22,344.33,730.36,334.83,730.35,325.34Z"/><path class="cls-2" d="M766.49,223.91c-5.58,0-27.5,3.26-28.94-2.86a404.33,404.33,0,0,0-29.17-44.56c-37-49.42-86.44-89-141.9-115.93C366.43-36,124.69,68.78,49.21,275.65c-67.67,181.47,6.41,387.69,175.53,482.87,140.82,78,323.34,54.93,439.65-56.79,33.43-31,60.7-68,81.52-108.47,13.08-24.55,5.56-31.15,38.07-26.91-73.79,210.32-329.16,322.8-533.61,231.71C-23.21,683.45-86.46,310.61,129.86,109.89,321.9-76.76,651.38-17,766.49,223.91Z"/><path class="cls-2" d="M580.12,396.56c5.06,64-46,131.2-80.54,149.24-31.76,17.29-38.24,17.29-64.92,22-14,1.48-27.94,1.37-41.93.86-8.68.75-19.23-5.69-23.32,5-4.31,7.79-9.39,15-17.45,19.37-6,3.2-18.21,11-22.82,2.44-13.78-37.16-43.63-65.19-63.43-99C237.88,453.17,226,396.64,242.24,347c18.25-68.59,85.25-121.37,156.11-123.89C494,216.7,583.49,299.85,580.12,396.56Zm-307.69-.76c.35,172.54,264.4,174.45,265-.32C535.89,221.91,274.12,221.21,272.43,395.8Z"/><path class="cls-2" d="M1063.59,384.79c17.43-2,20.69,25.08,4.65,25.08-162.07,0-258.07-.17-441.25-.17-18.13,0-8.64-26.88,8.2-25q106.72.12,213.45.05S991.94,384.76,1063.59,384.79Z"/><path class="cls-2" d="M406.47,651.1c-20.64,0-41.28-.05-61.92,0-25.78-.78-26-37.5-.31-38.63,40.53-.67,81.05-.34,121.59-.7,13.87,0,26.25,10.82,21.56,26.13-1.7,6.79-9.41,13-17,13.07-21.3.15-42.61,0-63.92,0Z"/><path class="cls-2" d="M407.22,664.73c20,0,40,0,60,0,10,0,17.32,5.72,19,15.53,1.52,8.88-5,19.88-16.26,20.5-41.13.27-82.29.05-123.42.16-9.95,0-15.37-3.93-18.62-13.42-3.72-9.52,5.41-23.62,16.88-22.75h62.46Z"/><path class="cls-2" d="M407.25,713.31c15.3,0,30.61,0,45.91,0,2.58,0,5.89-.55,7.08,2.35.91,13.26-17.33,24.1-27.77,29.55-20.16,11.08-45.46,7.69-63.19-6.57-5.31-4-27.07-22.62-11.42-25.26C374.32,713.2,390.79,713.35,407.25,713.31Z"/><path class="cls-3" d="M1016,466.2c.26-46.71-6.44-32.24,37.63-34.39,15.31-.21,28.64,13.88,18,28.63-1.95,2.91-1.74,4.56.94,6.57,12.78,9.46,7,30.34-8.4,32.56-13.93,2.53-28.3.34-42.39,1.25-4.78.15-6-1.65-5.84-6.13C1016.22,485.2,1016,475.7,1016,466.2Zm29.15,5c-4.46.86-13.71-2.59-13.28,3.63.91,4.54-3.22,11.71,2.43,13.23a45,45,0,0,0,22.62-.38c8.63-1.83,8.18-13.72-.23-15.64C1052.62,470.65,1048.48,471.45,1045.17,471.16Zm-1.72-27.09c-13.06-.4-12.26.9-11.6,12.11-.61,5.79,18,3.21,21.84,2.31a7,7,0,0,0-.25-13.69C1050.05,443.75,1046.52,444.21,1043.45,444.07Z"/><path class="cls-3" d="M789.19,465.85c.27-47.32-6.53-31.6,38.93-33.9,14.56.11,27.21,15.27,16.86,28.35-1.58,2.16-3.28,4-.11,6.12,7.61,5.16,8.82,12.75,6.84,20.79-5.11,16.53-26.22,13.08-39.78,13.51C779.2,501.35,791.45,503.07,789.19,465.85Zm28,22.65c21.42,3.36,26-14.39,9.16-17.19-5.2.76-22.84-3.65-21.51,4.56C805.15,491.21,802.6,488.31,817.16,488.5ZM816,443.87v.21c-3.52.62-10.58-2.06-11.09,3.16.73,3.59-2.12,10.95,2.55,12.09,6.42.08,12.9,1.05,19.24-.72,3.54-1,5.91-3.34,5.87-7.05C832.13,443.17,822,444.42,816,443.87Z"/><path class="cls-2" d="M144,383.69c13.33,0,26.67-.19,40,.09,9.26.76,15.7,11.87,10.43,20.17-4,7.55-10.82,8.57-17.64,8.68-22.82.37-45.66.15-68.48.16-8,0-14.62-4.35-17.11-11.24-3-8.23,3.34-17.69,12.33-17.86,13.49-.25,27-.06,40.48-.06Z"/><path class="cls-2" d="M184,176c-.18-15.07,17.24-17.12,26-8.1,12.88,14.18,26.91,27.21,40,41.18,3.52,3.56,7.22,7,10.88,10.47,16.31,14.12-6.88,34.79-20.34,20.17-15-15.59-30.21-31-45.8-45.95C189.91,188.88,182.47,183.53,184,176Z"/><path class="cls-3" d="M740.37,431.7c5.43-1.39,8.18,1.67,10.56,7.32,7.88,18.69,16.41,37.11,24.69,55.62,3.27,6.24.3,6-5.21,6.08-17.4,3.33-7.55-17-23.56-15a141.76,141.76,0,0,1-18,.06c-12.75.2-4.87,20-24.93,14.9-3.17-.69-2.44-2.32-1.52-4.38q8.67-19.33,17.24-38.72c2.71-6.07,5.51-12.09,8.13-18.19C731.08,431.73,731,431.71,740.37,431.7Zm-1.43,41.6c3.54-.39,12.1,1.83,8.9-4.58-2.4-5.27-4.44-10.7-6.67-16-.36-.86-.32-2.19-1.59-2.26-3.91,1.77-4.54,9.56-6.92,13.25C728.46,473.29,728.44,473.28,738.94,473.3Z"/><path class="cls-3" d="M965.44,485.79c-9.54-1-18-.75-19.46,11.08-.47,3.26-2.94,3.85-6,3.9-12.72.19-12.77.24-7.73-11.12,7.94-17.93,16-35.81,23.92-53.75,1.3-2.95,3.18-4.23,6.49-4.27,11.83-.15,11.8-.23,16.43,10.34,7.86,18,15.67,36,23.74,53.82,2.49,5-.88,5.09-4.73,4.93-12.59-.31-9.64,1.83-14.16-9.44C981.22,482.71,972.12,486.68,965.44,485.79Zm.54-12.54c2.9-.58,11.48,2.06,9.69-3.28-2.44-3.86-6.13-19-9.88-19.47-3.78,2.74-4,9.16-6.39,13.19C955.23,473.71,953.49,473.3,966,473.25Z"/><path class="cls-3" d="M842,324.83c0-9.65.13-19.31-.06-29-.07-4,1.48-5.24,5.31-5.2,13.82.15,27.65.21,41.46,0,5.4-.09,5.7,2.88,5.73,7s-1,6.57-5.83,6.42c-8.15-.26-16.31-.07-24.47,0-6,0-6.38.39-6.44,6.59-.23,4.13-.37,8.45,5,7.9,7.16-.13,14.32-.08,21.48,0,5.47.08,5.89.86,6,7.66.08,4.42-2.75,4.75-5.95,4.76-7,0-14,.14-21-.08-4-.12-5.67,1.16-5.68,5.4,0,10.25-.21,10.24,10.27,10.22,7.49,0,15,.08,22.48,0,3.22-.06,4.36,1.27,4.48,4.43.32,8.4.43,8.42-7.74,8.44-13.15,0-26.31-.12-39.46.1-4.29.07-5.89-1.19-5.75-5.67C842.23,344.15,842,334.49,842,324.83Z"/><path class="cls-2" d="M420.18,127c-.66,12.63.77,25.3-.91,37.92-1.53,15.57-22.95,15-23.78-.37-.52-24.63,0-49.32-.1-74-.77-17.26,20.86-20.12,23.85-2.51C420.92,101.06,419.57,114.06,420.18,127Z"/><path class="cls-3" d="M792,361.3c-41.78,2.88-51.49-56.73-15.54-69.56,13.36-4.89,26.46-3.9,38.32,5,3.62,2.71,4.2,5.37.43,8.4-2.9,2.33-5.1,7.07-9.09,3.12-9.76-8.42-24-7.17-31.49,2.48-16.19,20.3,10.38,50,30.8,32.21,3.33-3.08,5.14-2.1,7.77.54,6.59,6.61,6.53,8.22-1.69,12.76C805.12,359.74,798.29,361.72,792,361.3Z"/><path class="cls-2" d="M565.86,538.64c3.69-.09,6.3,2.16,8.63,4.47,13.9,13.81,28,27.46,41.54,41.58,6.62,7.17,20.66,16.25,10.91,26.6-5,5.27-10.48,5.7-15.74.75-16.9-15.9-33.8-31.79-49.44-49-3.55-3.9-8.37-6.63-7.85-13C554.35,544.67,560.46,538.56,565.86,538.64Z"/><path class="cls-2" d="M261.26,550c-2.8,14.11-18.18,21.77-27,32.17-9.62,9.39-18.17,19.91-28.71,28.29-10.61,10.43-27.79-6.15-15.91-16.29,13-13.26,26.3-26.31,39.43-39.47,7.54-5.28,12.81-19.71,23.54-15.74C257.93,540.87,261.28,545.25,261.26,550Z"/><path class="cls-3" d="M644.7,465.92c0-9.5.09-19-.05-28.49-.07-4.09,1.56-5.6,5.64-5.55,13.33.16,26.67.23,40,0,4.85-.09,5.85,2,5.89,6.29,0,4.58-1.12,6.79-6.15,6.61-8.16-.29-16.33.06-24.5-.14-4-.1-5.39,1.7-5.38,5.36,0,15.33-1.36,13.71,13.06,13.72,5,0,10,.06,15,0,4.85,0,3.86,3.49,3.94,6.36s.29,5.84-4.08,5.79c-6.63,1.32-29.88-4.26-28,5.9-1,4.85,3.18,18.4-3.79,18.57-13.26.23-11.63.46-11.61-10.44Q644.72,477.91,644.7,465.92Z"/><path class="cls-2" d="M557.89,224.41c-.59-3.21,1.77-5.47,3.78-7.52,15.84-16.1,31.72-32.18,47.82-48,11.17-11.18,28.17,4.17,15.59,16.26-15.79,16.63-32.23,32.61-48.68,48.58C569.49,242.07,557.72,234,557.89,224.41Z"/><path class="cls-3" d="M871.27,466.16c0-9.48.18-19-.09-28.43-.12-4.42,1.05-6.28,5.83-6.13,12.67.4,10.74-1.13,10.82,11,.09,12.81.22,25.61-.07,38.41-.12,4.91,1.63,6.37,6.33,6.17,7.3-.31,14.63-.13,21.95-.08,5.76,0,5.82.51,6.13,8,.18,4.52-1.55,5.69-5.79,5.63-13.3-.2-26.61-.16-39.91,0-3.83,0-5.34-1.18-5.25-5.17.21-9.8.07-19.62.07-29.43Z"/><path class="cls-3" d="M940.65,290.74c8.15,0,16.31.24,24.45-.09,5.84-.23,4.71,3.64,4.85,7,1.78,9.32-8.65,5.69-14.47,6.41-7.78,0-7.78,0-7.78,7.57,0,14.14-.12,28.28.1,42.42.06,4.2-1.41,5.46-5.48,5.4-12.35-.21-9.79.95-10.1-10.13-.35-13,0-25.93,0-38.9,0-6-.35-6.35-6.5-6.36-6.12-.56-17.37,2.76-15.91-6.92,0-3.78.56-6.53,5.33-6.44C923.68,290.86,932.16,290.74,940.65,290.74Z"/><path class="cls-3" d="M644.69,325c0-9.65.14-19.29-.07-28.93-.08-3.89,1.3-5.38,5.17-5.34,12.46.12,10.64-.63,10.7,10.18.08,13.31.14,26.61,0,39.91-.06,4.31,1.39,6,5.77,5.81,7.64-.25,15.31.21,22.94-.13,5.57-.25,5.57,2.93,5.67,7s-.59,6.15-5.36,6.05c-13.13-.27-26.27-.21-39.4,0-4.14.05-5.53-1.42-5.43-5.54.23-9.64.07-19.29.07-28.93Z"/><path class="cls-3" d="M730.36,325.34c0,9.49-.14,19,.07,28.49.09,3.83-1,5.37-5.07,5.3-11.68-.18-10,.56-10-9.82-.05-17,0-34,0-51,0-7.32,0-7.32,7.1-7.34,4.05-.12,8.48-.69,8,4.86C730.26,305.67,730.35,315.5,730.36,325.34Z"/><path class="cls-3" d="M272.43,395.8c7.76-180.12,262.92-173,265-.31C539.44,570.25,272.43,573.33,272.43,395.8Zm229.92-36c.36,18.86,1.84,18.07-15.21,26.62-9.81,5-12.32-13.15-34.42-2.1-31.53,11.38-51.05,85.52-2.07,79.88,15.6-4.3,26.3-14.47,31.91-29.17,3.1-8.1,7.78-13.5,15.26-17.18,3.18-1.57,4.64-1.27,4.61,2.56-1.45,8.34,3.69,29.45-3.95,33.36-14.55,8.4-29,17-43.53,25.43s-29.1,16.8-43.62,25.25c-3.36,1.95-4.82,8-3.29,12.62,1.29,3.94,4.62,2.68,7.18,2.54,56.79-2.87,104.22-48.37,112.87-104,4.38-24.87.28-48.32-9.23-71.18-3.65-8.77-4.32-9.88-13.79-3.64C499.79,345.32,503.36,353.73,502.35,359.83ZM307.08,397h0c0-15.49-.29-31,.16-46.46,1.56-7.41-10-19.31-14.47-10-24.15,48-12.72,109.76,26.92,146.09a126.25,126.25,0,0,0,29.71,20.85c12.11,6,38.5,15.63,50.94,10.76,2.25-3.3.15-12-3.45-14.14-5.79-4.94-20.83-8.14-21.22-16.27,1.48-8.08-3.37-21.08,3.22-26.78,26.76-20.94,4.29-64.78-21.88-76.33-15.31-7.49-31.18.13-34.51,16.8-3.13,15.7,1.87,29.6,10.89,42.23,2,2.74,3.1,5.33,2.95,8.67-1.21,4,3.24,17.82-4.73,13.51-7.45-6.24-25-9.3-24.62-20.51C307.19,429.29,307.08,413.13,307.08,397Zm95.72-29.76c39.16.63,64.36-39.24,22.08-57.9-10.54-4.31-21.64-3.74-32.53-2.48-4.85,1.44-21.54-4.24-13.21-9.48,7.81-2.69,22.48-16.86,29.56-12.46,29.05,16.87,58,34,87.22,50.49,7.89,3.46,19.78-3.58,10.92-11.66-29.26-42.17-84.25-62.91-133.83-48.81C344,283,320.21,298.8,302.74,323.61c-1.78,2.52-4.44,5-1.6,8.39,8.87,10.12,18.16-.26,26.46-4.76,14.11-8.8,10-8.9,24.82,0,4,2.4,5.61,5,5.27,9.6C357.66,358.87,385.65,365.7,402.8,367.22Z"/><path class="cls-1" d="M1045.17,471.16c3.31.29,7.45-.51,11.54.84,8.41,1.92,8.87,13.81.23,15.64a45,45,0,0,1-22.62.38c-5.65-1.52-1.52-8.69-2.43-13.23C1031.44,468.56,1040.72,472,1045.17,471.16Z"/><path class="cls-1" d="M1043.45,444.07c5.39-.1,15.51-.37,16,7.26.09,3.59-2,6-5.71,7.16-3.88.9-22.42,3.49-21.84-2.31C1031.19,445,1030.39,443.67,1043.45,444.07Z"/><path class="cls-1" d="M817.16,488.5c-14.56-.19-12,2.71-12.35-12.63-1.36-8.21,16.33-3.8,21.51-4.56C843.14,474.11,838.58,491.86,817.16,488.5Z"/><path class="cls-1" d="M816,443.87c6,.55,16.15-.7,16.56,7.69,0,3.71-2.33,6.07-5.87,7.05-6.34,1.77-12.82.8-19.24.72-4.68-1.14-1.81-8.5-2.55-12.09.5-5.23,7.57-2.54,11.09-3.16Z"/><path class="cls-1" d="M738.94,473.3c-10.5,0-10.48,0-6.28-9.63,2.39-3.7,3-11.46,6.92-13.25,1.27.07,1.23,1.4,1.59,2.26,2.23,5.34,4.27,10.77,6.67,16C751,475.14,742.48,472.9,738.94,473.3Z"/><path class="cls-1" d="M966,473.25c-12.49.05-10.75.46-6.57-9.56,2.4-4,2.6-10.45,6.38-13.19,3.71.38,7.47,15.66,9.88,19.46C977.47,475.33,968.88,472.66,966,473.25Z"/><path class="cls-1" d="M502.36,359.83c1-6.13-2.58-14.47,2.71-19,9.47-6.24,10.14-5.13,13.79,3.64,9.51,22.86,13.61,46.31,9.23,71.18-8.65,55.59-56.08,101.09-112.87,104-2.56.14-5.89,1.4-7.18-2.54-1.53-4.64-.07-10.67,3.29-12.62,14.52-8.45,29.1-16.8,43.62-25.25s29-17,43.53-25.43c7.68-4,2.47-25,3.95-33.36,0-3.83-1.43-4.13-4.61-2.56-7.48,3.68-12.16,9.08-15.26,17.18-5.61,14.7-16.31,24.87-31.91,29.17-49,5.63-29.47-68.49,2.07-79.88,22.11-11.05,24.47,7,34.42,2.1C504.34,377.79,502.64,378.78,502.36,359.83Z"/><path class="cls-1" d="M307.08,397c0,16.15.11,32.31-.07,48.46-.4,11.19,17.2,14.28,24.62,20.51,8,4.34,3.53-9.52,4.73-13.51.15-3.34-1-5.93-2.95-8.67-9-12.63-14-26.53-10.89-42.23,3.33-16.67,19.2-24.29,34.51-16.8,26.17,11.51,48.63,55.42,21.88,76.33-6.58,5.73-1.75,18.67-3.22,26.78.36,8.11,15.41,11.32,21.22,16.27,3.6,2.1,5.7,10.84,3.45,14.13-12.27,4.93-39-4.83-50.94-10.75a126.25,126.25,0,0,1-29.71-20.85c-39.63-36.33-51.07-98.1-26.92-146.09,4.46-9.45,16.07,2.66,14.47,10-.45,15.47-.16,31-.16,46.46Z"/><path class="cls-1" d="M402.8,367.22c-17.15-1.5-45.14-8.36-45.11-30.37.34-4.58-1.29-7.2-5.27-9.6-14.79-8.91-10.71-8.81-24.82,0-8.29,4.5-17.61,14.88-26.46,4.76-2.84-3.35-.18-5.87,1.6-8.39C320.21,298.8,344,283,373,274.92c49.58-14.1,104.57,6.64,133.83,48.81,8.72,8-2.81,15.14-10.92,11.66-29.24-16.52-58.17-33.62-87.22-50.48-7.23-4.39-21.68,9.76-29.56,12.45-8.36,5.21,8.4,10.95,13.21,9.48,10.89-1.26,22-1.83,32.53,2.48C467.16,328,442,367.86,402.8,367.22Z"/></g></g></svg>